<svg xmlns="http://www.w3.org/2000/svg" width="64" height="64" viewBox="0 0 64 64"><g id="shadow"><ellipse cx="32" cy="57" rx="21.0" ry="3.6" fill="#000" fill-opacity="0.2"/></g><g id="body"><clipPath id="bhulksouthlightbrown"><path d="M15.0 37 Q15.0 30 23.0 30 L41.0 30 Q49.0 30 49.0 37 C51.0 41 46.0 47 44.0 51 Q43.0 55 38.0 55 L26.0 55 Q21.0 55 20.0 51 C18.0 47 13.0 41 15.0 37 Z"/></clipPath><path d="M15.0 37 Q15.0 30 23.0 30 L41.0 30 Q49.0 30 49.0 37 C51.0 41 46.0 47 44.0 51 Q43.0 55 38.0 55 L26.0 55 Q21.0 55 20.0 51 C18.0 47 13.0 41 15.0 37 Z" fill="#8a5a33"/><rect x="37.95" y="0" width="64" height="64" fill="#6f4526" clip-path="url(#bhulksouthlightbrown)"/><path d="M15.0 37 Q15.0 30 23.0 30 L41.0 30 Q49.0 30 49.0 37 C51.0 41 46.0 47 44.0 51 Q43.0 55 38.0 55 L26.0 55 Q21.0 55 20.0 51 C18.0 47 13.0 41 15.0 37 Z" fill="none" stroke="#1c1b22" stroke-width="3" stroke-linejoin="round" stroke-linecap="round"/></g><g id="head"><clipPath id="hhulksouthlightbrown"><circle cx="32" cy="22.5" r="11.5"/></clipPath><circle cx="32" cy="22.5" r="11.5" fill="#f6c79a"/><rect x="36.025" y="9.0" width="23.0" height="27.0" fill="#e0a574" clip-path="url(#hhulksouthlightbrown)"/><circle cx="32" cy="22.5" r="11.5" fill="none" stroke="#1c1b22" stroke-width="3" stroke-linejoin="round" stroke-linecap="round"/><rect x="27.4" y="21.0" width="3.2" height="6.4" rx="1.6" fill="#1c1b22"/><rect x="33.4" y="21.0" width="3.2" height="6.4" rx="1.6" fill="#1c1b22"/></g></svg>