<svg xmlns="http://www.w3.org/2000/svg" width="64" height="64" viewBox="0 0 64 64"><ellipse cx="32" cy="57" rx="11.559999999999999" ry="3.6" fill="#000" fill-opacity="0.2"/><clipPath id="gsheastb"><path d="M24.44 40 Q24.44 33 32.44 33 L31.560000000000002 33 Q39.56 33 39.56 40 C41.36 44 41.209999999999994 47 39.41 51 Q38.41 55 33.41 55 L30.59 55 Q25.59 55 24.59 51 C22.79 47 22.64 44 24.44 40 Z"/></clipPath><path d="M24.44 40 Q24.44 33 32.44 33 L31.560000000000002 33 Q39.56 33 39.56 40 C41.36 44 41.209999999999994 47 39.41 51 Q38.41 55 33.41 55 L30.59 55 Q25.59 55 24.59 51 C22.79 47 22.64 44 24.44 40 Z" fill="#565e66"/><path d="M24.44 40 Q24.44 33 32.44 33 L31.560000000000002 33 Q39.56 33 39.56 40 C41.36 44 41.209999999999994 47 39.41 51 Q38.41 55 33.41 55 L30.59 55 Q25.59 55 24.59 51 C22.79 47 22.64 44 24.44 40 Z" fill="#6d7680" transform="translate(-3.0 -2.3)" clip-path="url(#gsheastbm)"/><clipPath id="gsheastbm" transform="translate(3.0 2.3)"><path d="M24.44 40 Q24.44 33 32.44 33 L31.560000000000002 33 Q39.56 33 39.56 40 C41.36 44 41.209999999999994 47 39.41 51 Q38.41 55 33.41 55 L30.59 55 Q25.59 55 24.59 51 C22.79 47 22.64 44 24.44 40 Z"/></clipPath><path d="M24.44 40 Q24.44 33 32.44 33 L31.560000000000002 33 Q39.56 33 39.56 40 C41.36 44 41.209999999999994 47 39.41 51 Q38.41 55 33.41 55 L30.59 55 Q25.59 55 24.59 51 C22.79 47 22.64 44 24.44 40 Z" fill="none" stroke="#1c1b22" stroke-width="3" stroke-linejoin="round" stroke-linecap="round"/><circle cx="26" cy="46" r="5" fill="#b0b8c0" stroke="#1c1b22" stroke-width="1.6"/><clipPath id="gsheaste0"><path d="M26.625 22.825 L13.5 15.475000000000001 L28.725 30.175 Z"/></clipPath><path d="M26.625 22.825 L13.5 15.475000000000001 L28.725 30.175 Z" fill="#5ea338"/><path d="M26.625 22.825 L13.5 15.475000000000001 L28.725 30.175 Z" fill="#78c24c" transform="translate(-1.6 -1.2)" clip-path="url(#gsheaste0m)"/><clipPath id="gsheaste0m" transform="translate(1.6 1.2)"><path d="M26.625 22.825 L13.5 15.475000000000001 L28.725 30.175 Z"/></clipPath><path d="M26.625 22.825 L13.5 15.475000000000001 L28.725 30.175 Z" fill="none" stroke="#1c1b22" stroke-width="3" stroke-linejoin="round" stroke-linecap="round"/><clipPath id="gsheasth"><path d="M24.0 26.5 A10.5 10.5 0 1 0 45.0 26.5 A10.5 10.5 0 1 0 24.0 26.5 Z"/></clipPath><path d="M24.0 26.5 A10.5 10.5 0 1 0 45.0 26.5 A10.5 10.5 0 1 0 24.0 26.5 Z" fill="#5ea338"/><path d="M24.0 26.5 A10.5 10.5 0 1 0 45.0 26.5 A10.5 10.5 0 1 0 24.0 26.5 Z" fill="#78c24c" transform="translate(-2.6 -2.2)" clip-path="url(#gsheasthm)"/><clipPath id="gsheasthm" transform="translate(2.6 2.2)"><path d="M24.0 26.5 A10.5 10.5 0 1 0 45.0 26.5 A10.5 10.5 0 1 0 24.0 26.5 Z"/></clipPath><path d="M24.0 26.5 A10.5 10.5 0 1 0 45.0 26.5 A10.5 10.5 0 1 0 24.0 26.5 Z" fill="none" stroke="#1c1b22" stroke-width="3" stroke-linejoin="round" stroke-linecap="round"/><path d="M34.7 21.3 L41.3 22.9" stroke="#1c1b22" stroke-width="2" stroke-linecap="round"/><rect x="33.699999999999996" y="23.3" width="3.2" height="6.4" rx="1.6" fill="#1c1b22"/><rect x="38.800000000000004" y="23.3" width="2.6" height="6.4" rx="1.3" fill="#1c1b22"/></svg>