<svg xmlns="http://www.w3.org/2000/svg" width="64" height="64" viewBox="0 0 64 64"><ellipse cx="32" cy="57" rx="12.5" ry="3.6" fill="#000" fill-opacity="0.2"/><clipPath id="kfcnorthb"><path d="M23.5 41 Q23.5 34 31.5 34 L32.5 34 Q40.5 34 40.5 41 C42.0 45 41.0 47 39.5 51 Q38.5 55 33.5 55 L30.5 55 Q25.5 55 24.5 51 C23.0 47 22.0 45 23.5 41 Z"/></clipPath><path d="M23.5 41 Q23.5 34 31.5 34 L32.5 34 Q40.5 34 40.5 41 C42.0 45 41.0 47 39.5 51 Q38.5 55 33.5 55 L30.5 55 Q25.5 55 24.5 51 C23.0 47 22.0 45 23.5 41 Z" fill="#963223"/><path d="M23.5 41 Q23.5 34 31.5 34 L32.5 34 Q40.5 34 40.5 41 C42.0 45 41.0 47 39.5 51 Q38.5 55 33.5 55 L30.5 55 Q25.5 55 24.5 51 C23.0 47 22.0 45 23.5 41 Z" fill="#b8412e" transform="translate(-3.0 -2.3)" clip-path="url(#kfcnorthbm)"/><clipPath id="kfcnorthbm" transform="translate(3.0 2.3)"><path d="M23.5 41 Q23.5 34 31.5 34 L32.5 34 Q40.5 34 40.5 41 C42.0 45 41.0 47 39.5 51 Q38.5 55 33.5 55 L30.5 55 Q25.5 55 24.5 51 C23.0 47 22.0 45 23.5 41 Z"/></clipPath><path d="M23.5 41 Q23.5 34 31.5 34 L32.5 34 Q40.5 34 40.5 41 C42.0 45 41.0 47 39.5 51 Q38.5 55 33.5 55 L30.5 55 Q25.5 55 24.5 51 C23.0 47 22.0 45 23.5 41 Z" fill="none" stroke="#1c1b22" stroke-width="3" stroke-linejoin="round" stroke-linecap="round"/><path d="M32 52 Q27.5 48 30.5 42.5 Q32 46 33.5 43.5 Q37 48.5 32 52 Z" fill="#ffb13a" stroke="#1c1b22" stroke-width="1.4" stroke-linejoin="round"/><clipPath id="kfcnorthh0"><path d="M25.3 20.0 L24.0 12.5 L29.7 21.0 Z"/></clipPath><path d="M25.3 20.0 L24.0 12.5 L29.7 21.0 Z" fill="#d2c29a"/><path d="M25.3 20.0 L24.0 12.5 L29.7 21.0 Z" fill="#efe2c0" transform="translate(-1 -1)" clip-path="url(#kfcnorthh0m)"/><clipPath id="kfcnorthh0m" transform="translate(1 1)"><path d="M25.3 20.0 L24.0 12.5 L29.7 21.0 Z"/></clipPath><path d="M25.3 20.0 L24.0 12.5 L29.7 21.0 Z" fill="none" stroke="#1c1b22" stroke-width="3" stroke-linejoin="round" stroke-linecap="round"/><clipPath id="kfcnorthh1"><path d="M34.3 20.0 L40.0 12.5 L38.7 21.0 Z"/></clipPath><path d="M34.3 20.0 L40.0 12.5 L38.7 21.0 Z" fill="#d2c29a"/><path d="M34.3 20.0 L40.0 12.5 L38.7 21.0 Z" fill="#efe2c0" transform="translate(-1 -1)" clip-path="url(#kfcnorthh1m)"/><clipPath id="kfcnorthh1m" transform="translate(1 1)"><path d="M34.3 20.0 L40.0 12.5 L38.7 21.0 Z"/></clipPath><path d="M34.3 20.0 L40.0 12.5 L38.7 21.0 Z" fill="none" stroke="#1c1b22" stroke-width="3" stroke-linejoin="round" stroke-linecap="round"/><clipPath id="kfcnorthh"><path d="M22.0 28.0 A10.0 10.0 0 1 0 42.0 28.0 A10.0 10.0 0 1 0 22.0 28.0 Z"/></clipPath><path d="M22.0 28.0 A10.0 10.0 0 1 0 42.0 28.0 A10.0 10.0 0 1 0 22.0 28.0 Z" fill="#b0602c"/><path d="M22.0 28.0 A10.0 10.0 0 1 0 42.0 28.0 A10.0 10.0 0 1 0 22.0 28.0 Z" fill="#d0763c" transform="translate(-2.6 -2.2)" clip-path="url(#kfcnorthhm)"/><clipPath id="kfcnorthhm" transform="translate(2.6 2.2)"><path d="M22.0 28.0 A10.0 10.0 0 1 0 42.0 28.0 A10.0 10.0 0 1 0 22.0 28.0 Z"/></clipPath><path d="M22.0 28.0 A10.0 10.0 0 1 0 42.0 28.0 A10.0 10.0 0 1 0 22.0 28.0 Z" fill="none" stroke="#1c1b22" stroke-width="3" stroke-linejoin="round" stroke-linecap="round"/></svg>