<svg xmlns="http://www.w3.org/2000/svg" width="64" height="64" viewBox="0 0 64 64"><ellipse cx="32" cy="58" rx="18" ry="3.6" fill="#000" fill-opacity="0.2"/><path d="M20 44 L13 46" stroke="#1c1b22" stroke-width="3.2" stroke-linecap="round"/><path d="M20 50 L13 51" stroke="#1c1b22" stroke-width="3.2" stroke-linecap="round"/><path d="M20 55 L13 55" stroke="#1c1b22" stroke-width="3.2" stroke-linecap="round"/><path d="M44 44 L51 46" stroke="#1c1b22" stroke-width="3.2" stroke-linecap="round"/><path d="M44 50 L51 51" stroke="#1c1b22" stroke-width="3.2" stroke-linecap="round"/><path d="M44 55 L51 55" stroke="#1c1b22" stroke-width="3.2" stroke-linecap="round"/><clipPath id="btlnorths"><path d="M13 46 Q13 22 32 22 Q51 22 51 46 Q51 50 46 50 L18 50 Q13 50 13 46 Z"/></clipPath><path d="M13 46 Q13 22 32 22 Q51 22 51 46 Q51 50 46 50 L18 50 Q13 50 13 46 Z" fill="#5f5a52"/><path d="M13 46 Q13 22 32 22 Q51 22 51 46 Q51 50 46 50 L18 50 Q13 50 13 46 Z" fill="#7a746a" transform="translate(-3.0 -2.4)" clip-path="url(#btlnorthsm)"/><clipPath id="btlnorthsm" transform="translate(3.0 2.4)"><path d="M13 46 Q13 22 32 22 Q51 22 51 46 Q51 50 46 50 L18 50 Q13 50 13 46 Z"/></clipPath><path d="M13 46 Q13 22 32 22 Q51 22 51 46 Q51 50 46 50 L18 50 Q13 50 13 46 Z" fill="none" stroke="#1c1b22" stroke-width="3" stroke-linejoin="round" stroke-linecap="round"/><path d="M32 25 L32 50" stroke="#1c1b22" stroke-width="2"/><ellipse cx="22" cy="32" rx="4" ry="2.4" fill="#6a8a4a" opacity="0.9"/><ellipse cx="41" cy="36" rx="3.4" ry="2" fill="#6a8a4a" opacity="0.9"/><ellipse cx="26" cy="41" rx="3" ry="1.8" fill="#6a8a4a" opacity="0.9"/><path d="M20 30 Q24 26 29 26" fill="none" stroke="#ffffff" stroke-width="2" stroke-linecap="round" opacity="0.6"/></svg>