<svg xmlns="http://www.w3.org/2000/svg" width="64" height="64" viewBox="0 0 64 64"><clipPath id="sbpoison"><path d="M8 32 A24 24 0 1 0 56 32 A24 24 0 1 0 8 32 Z"/></clipPath><path d="M8 32 A24 24 0 1 0 56 32 A24 24 0 1 0 8 32 Z" fill="#4a832d"/><path d="M8 32 A24 24 0 1 0 56 32 A24 24 0 1 0 8 32 Z" fill="#5fa83a" transform="translate(-2.6 -2.0)" clip-path="url(#sbpoisonm)"/><clipPath id="sbpoisonm" transform="translate(2.6 2.0)"><path d="M8 32 A24 24 0 1 0 56 32 A24 24 0 1 0 8 32 Z"/></clipPath><path d="M8 32 A24 24 0 1 0 56 32 A24 24 0 1 0 8 32 Z" fill="none" stroke="#1c1b22" stroke-width="3" stroke-linejoin="round" stroke-linecap="round"/><path d="M22 30 Q22 20 32 20 Q42 20 42 30 Q42 34 39 36 L39 40 L25 40 L25 36 Q22 34 22 30 Z" fill="#e4ffc0" stroke="#1c1b22" stroke-width="2" stroke-linejoin="round" stroke-linecap="round"/><circle cx="28" cy="29" r="2.6" fill="#1c1b22"/><circle cx="36" cy="29" r="2.6" fill="#1c1b22"/><path d="M27 44 L37 44 L37 48 L27 48 Z" fill="#e4ffc0" stroke="#1c1b22" stroke-width="2" stroke-linejoin="round" stroke-linecap="round"/></svg>