<svg xmlns="http://www.w3.org/2000/svg" width="64" height="64" viewBox="0 0 64 64"><rect x="38" y="36" width="10" height="24" rx="4" transform="rotate(-45 43 48)" fill="#a8703e" stroke="#1c1b22" stroke-width="3" stroke-linejoin="round" stroke-linecap="round"/><clipPath id="idg"><path d="M8 26 A18 18 0 1 0 44 26 A18 18 0 1 0 8 26 Z"/></clipPath><path d="M8 26 A18 18 0 1 0 44 26 A18 18 0 1 0 8 26 Z" fill="#86c6ef"/><path d="M8 26 A18 18 0 1 0 44 26 A18 18 0 1 0 8 26 Z" fill="#a8ddff" transform="translate(-2.4 -2)" clip-path="url(#idgm)"/><clipPath id="idgm" transform="translate(2.4 2)"><path d="M8 26 A18 18 0 1 0 44 26 A18 18 0 1 0 8 26 Z"/></clipPath><path d="M8 26 A18 18 0 1 0 44 26 A18 18 0 1 0 8 26 Z" fill="none" stroke="#1c1b22" stroke-width="3" stroke-linejoin="round" stroke-linecap="round"/><path d="M16 20 A11 11 0 0 1 25 14" fill="none" stroke="#ffffff" stroke-width="4.5" stroke-linecap="round"/></svg>