<svg xmlns="http://www.w3.org/2000/svg" width="64" height="64" viewBox="0 0 64 64"><path d="M15 3 L49 3 Q61 3 61 15 L61 49 Q61 61 49 61 L15 61 Q3 61 3 49 L3 15 Q3 3 15 3 Z" fill="#1c1b22"/><path d="M15.5 5.5 L48.5 5.5 Q58.5 5.5 58.5 15.5 L58.5 48.5 Q58.5 58.5 48.5 58.5 L15.5 58.5 Q5.5 58.5 5.5 48.5 L5.5 15.5 Q5.5 5.5 15.5 5.5 Z" fill="#cad84a"/><path d="M16.5 8.5 L47.5 8.5 Q55.5 8.5 55.5 16.5 L55.5 47.5 Q55.5 55.5 47.5 55.5 L16.5 55.5 Q8.5 55.5 8.5 47.5 L8.5 16.5 Q8.5 8.5 16.5 8.5 Z" fill="#2c3314"/><path d="M12 14 Q12 11 16 11 L30 11" fill="none" stroke="#cad84a" stroke-width="2" stroke-linecap="round" opacity="0.6"/><circle cx="32" cy="32" r="15" fill="none" stroke="#1c1b22" stroke-width="5"/><circle cx="32" cy="32" r="15" fill="none" stroke="#e0453a" stroke-width="2.6"/><path d="M32 12 L32 20" fill="none" stroke="#1c1b22" stroke-width="5.0" stroke-linecap="round" stroke-linejoin="round"/><path d="M32 12 L32 20" fill="none" stroke="#e0453a" stroke-width="2.4" stroke-linecap="round" stroke-linejoin="round"/><path d="M32 44 L32 52" fill="none" stroke="#1c1b22" stroke-width="5.0" stroke-linecap="round" stroke-linejoin="round"/><path d="M32 44 L32 52" fill="none" stroke="#e0453a" stroke-width="2.4" stroke-linecap="round" stroke-linejoin="round"/><path d="M12 32 L20 32" fill="none" stroke="#1c1b22" stroke-width="5.0" stroke-linecap="round" stroke-linejoin="round"/><path d="M12 32 L20 32" fill="none" stroke="#e0453a" stroke-width="2.4" stroke-linecap="round" stroke-linejoin="round"/><path d="M44 32 L52 32" fill="none" stroke="#1c1b22" stroke-width="5.0" stroke-linecap="round" stroke-linejoin="round"/><path d="M44 32 L52 32" fill="none" stroke="#e0453a" stroke-width="2.4" stroke-linecap="round" stroke-linejoin="round"/><path d="M14.0 50.0 L27.8 36.2" fill="none" stroke="#1c1b22" stroke-width="5.2" stroke-linecap="round" stroke-linejoin="round"/><path d="M14.0 50.0 L27.8 36.2" fill="none" stroke="#a8703e" stroke-width="2.6" stroke-linecap="round" stroke-linejoin="round"/><clipPath id="k13"><path d="M32.0 32.0 L29.5 40.8 L23.2 34.5 Z"/></clipPath><path d="M32.0 32.0 L29.5 40.8 L23.2 34.5 Z" fill="#a8b3c2"/><path d="M32.0 32.0 L29.5 40.8 L23.2 34.5 Z" fill="#d4dbe4" transform="translate(-0.8 -0.8)" clip-path="url(#k13m)"/><clipPath id="k13m" transform="translate(0.8 0.8)"><path d="M32.0 32.0 L29.5 40.8 L23.2 34.5 Z"/></clipPath><path d="M32.0 32.0 L29.5 40.8 L23.2 34.5 Z" fill="none" stroke="#1c1b22" stroke-width="3" stroke-linejoin="round" stroke-linecap="round"/><path d="M14.0 50.0 L21.1 48.6 L20.4 43.6 L15.4 42.9 Z" fill="#e0453a" stroke="#1c1b22" stroke-width="2" stroke-linejoin="round" stroke-linecap="round"/></svg>