<svg xmlns="http://www.w3.org/2000/svg" width="64" height="64" viewBox="0 0 64 64"><path d="M15 3 L49 3 Q61 3 61 15 L61 49 Q61 61 49 61 L15 61 Q3 61 3 49 L3 15 Q3 3 15 3 Z" fill="#1c1b22"/><path d="M15.5 5.5 L48.5 5.5 Q58.5 5.5 58.5 15.5 L58.5 48.5 Q58.5 58.5 48.5 58.5 L15.5 58.5 Q5.5 58.5 5.5 48.5 L5.5 15.5 Q5.5 5.5 15.5 5.5 Z" fill="#e2d6b8"/><path d="M16.5 8.5 L47.5 8.5 Q55.5 8.5 55.5 16.5 L55.5 47.5 Q55.5 55.5 47.5 55.5 L16.5 55.5 Q8.5 55.5 8.5 47.5 L8.5 16.5 Q8.5 8.5 16.5 8.5 Z" fill="#2e2a26"/><path d="M12 14 Q12 11 16 11 L30 11" fill="none" stroke="#e2d6b8" stroke-width="2" stroke-linecap="round" opacity="0.6"/><clipPath id="k2"><path d="M34 26 A6 6 0 1 0 46 26 A6 6 0 1 0 34 26 Z"/></clipPath><path d="M34 26 A6 6 0 1 0 46 26 A6 6 0 1 0 34 26 Z" fill="#e0a574"/><path d="M34 26 A6 6 0 1 0 46 26 A6 6 0 1 0 34 26 Z" fill="#f6c79a" transform="translate(-1.6 -1.4)" clip-path="url(#k2m)"/><clipPath id="k2m" transform="translate(1.6 1.4)"><path d="M34 26 A6 6 0 1 0 46 26 A6 6 0 1 0 34 26 Z"/></clipPath><path d="M34 26 A6 6 0 1 0 46 26 A6 6 0 1 0 34 26 Z" fill="none" stroke="#1c1b22" stroke-width="3" stroke-linejoin="round" stroke-linecap="round"/><clipPath id="k3"><path d="M31 50 Q31 36 40 36 Q49 36 49 50 Z"/></clipPath><path d="M31 50 Q31 36 40 36 Q49 36 49 50 Z" fill="#3e5a97"/><path d="M31 50 Q31 36 40 36 Q49 36 49 50 Z" fill="#4f6fb5" transform="translate(-1.6 -1.4)" clip-path="url(#k3m)"/><clipPath id="k3m" transform="translate(1.6 1.4)"><path d="M31 50 Q31 36 40 36 Q49 36 49 50 Z"/></clipPath><path d="M31 50 Q31 36 40 36 Q49 36 49 50 Z" fill="none" stroke="#1c1b22" stroke-width="3" stroke-linejoin="round" stroke-linecap="round"/><clipPath id="k4"><path d="M10.799999999999999 17.5 L37.2 17.5 L37.2 34 Q37.2 47.2 24 50.5 Q10.799999999999999 47.2 10.799999999999999 34 Z"/></clipPath><path d="M10.799999999999999 17.5 L37.2 17.5 L37.2 34 Q37.2 47.2 24 50.5 Q10.799999999999999 47.2 10.799999999999999 34 Z" fill="#a8b3c2"/><path d="M10.799999999999999 17.5 L37.2 17.5 L37.2 34 Q37.2 47.2 24 50.5 Q10.799999999999999 47.2 10.799999999999999 34 Z" fill="#d4dbe4" transform="translate(-2.0 -1.6)" clip-path="url(#k4m)"/><clipPath id="k4m" transform="translate(2.0 1.6)"><path d="M10.799999999999999 17.5 L37.2 17.5 L37.2 34 Q37.2 47.2 24 50.5 Q10.799999999999999 47.2 10.799999999999999 34 Z"/></clipPath><path d="M10.799999999999999 17.5 L37.2 17.5 L37.2 34 Q37.2 47.2 24 50.5 Q10.799999999999999 47.2 10.799999999999999 34 Z" fill="none" stroke="#1c1b22" stroke-width="3" stroke-linejoin="round" stroke-linecap="round"/><circle cx="24" cy="30.7" r="3.3000000000000003" fill="#8e98a8" stroke="#1c1b22" stroke-width="2" stroke-linejoin="round" stroke-linecap="round"/></svg>