<svg xmlns="http://www.w3.org/2000/svg" width="64" height="64" viewBox="0 0 64 64"><path d="M15 3 L49 3 Q61 3 61 15 L61 49 Q61 61 49 61 L15 61 Q3 61 3 49 L3 15 Q3 3 15 3 Z" fill="#1c1b22"/><path d="M15.5 5.5 L48.5 5.5 Q58.5 5.5 58.5 15.5 L58.5 48.5 Q58.5 58.5 48.5 58.5 L15.5 58.5 Q5.5 58.5 5.5 48.5 L5.5 15.5 Q5.5 5.5 15.5 5.5 Z" fill="#8fd88a"/><path d="M16.5 8.5 L47.5 8.5 Q55.5 8.5 55.5 16.5 L55.5 47.5 Q55.5 55.5 47.5 55.5 L16.5 55.5 Q8.5 55.5 8.5 47.5 L8.5 16.5 Q8.5 8.5 16.5 8.5 Z" fill="#1f3a28"/><path d="M12 14 Q12 11 16 11 L30 11" fill="none" stroke="#8fd88a" stroke-width="2" stroke-linecap="round" opacity="0.6"/><circle cx="32" cy="34" r="20" fill="none" stroke="#1c1b22" stroke-width="6" stroke-dasharray="4 4"/><circle cx="32" cy="34" r="20" fill="none" stroke="#8fd88a" stroke-width="2.8" stroke-dasharray="4 4"/><clipPath id="g104"><path d="M20.299999999999997 30.8 L20.299999999999997 15.2 L29.4 25.6 Z"/></clipPath><path d="M20.299999999999997 30.8 L20.299999999999997 15.2 L29.4 25.6 Z" fill="#7c8290"/><path d="M20.299999999999997 30.8 L20.299999999999997 15.2 L29.4 25.6 Z" fill="#9aa0ac" transform="translate(-0.8 -0.8)" clip-path="url(#g104m)"/><clipPath id="g104m" transform="translate(0.8 0.8)"><path d="M20.299999999999997 30.8 L20.299999999999997 15.2 L29.4 25.6 Z"/></clipPath><path d="M20.299999999999997 30.8 L20.299999999999997 15.2 L29.4 25.6 Z" fill="none" stroke="#1c1b22" stroke-width="3" stroke-linejoin="round" stroke-linecap="round"/><clipPath id="g105"><path d="M43.7 30.8 L43.7 15.2 L34.6 25.6 Z"/></clipPath><path d="M43.7 30.8 L43.7 15.2 L34.6 25.6 Z" fill="#7c8290"/><path d="M43.7 30.8 L43.7 15.2 L34.6 25.6 Z" fill="#9aa0ac" transform="translate(-0.8 -0.8)" clip-path="url(#g105m)"/><clipPath id="g105m" transform="translate(0.8 0.8)"><path d="M43.7 30.8 L43.7 15.2 L34.6 25.6 Z"/></clipPath><path d="M43.7 30.8 L43.7 15.2 L34.6 25.6 Z" fill="none" stroke="#1c1b22" stroke-width="3" stroke-linejoin="round" stroke-linecap="round"/><clipPath id="g106"><path d="M19.0 36 A13.0 13.0 0 1 0 45.0 36 A13.0 13.0 0 1 0 19.0 36 Z"/></clipPath><path d="M19.0 36 A13.0 13.0 0 1 0 45.0 36 A13.0 13.0 0 1 0 19.0 36 Z" fill="#7c8290"/><path d="M19.0 36 A13.0 13.0 0 1 0 45.0 36 A13.0 13.0 0 1 0 19.0 36 Z" fill="#9aa0ac" transform="translate(-1.4 -1.2)" clip-path="url(#g106m)"/><clipPath id="g106m" transform="translate(1.4 1.2)"><path d="M19.0 36 A13.0 13.0 0 1 0 45.0 36 A13.0 13.0 0 1 0 19.0 36 Z"/></clipPath><path d="M19.0 36 A13.0 13.0 0 1 0 45.0 36 A13.0 13.0 0 1 0 19.0 36 Z" fill="none" stroke="#1c1b22" stroke-width="3" stroke-linejoin="round" stroke-linecap="round"/><clipPath id="g107"><path d="M25.5 39.9 Q32 51.6 38.5 39.9 Z"/></clipPath><path d="M25.5 39.9 Q32 51.6 38.5 39.9 Z" fill="#d4c9aa"/><path d="M25.5 39.9 Q32 51.6 38.5 39.9 Z" fill="#f1ead6" transform="translate(-0.6 -0.6)" clip-path="url(#g107m)"/><clipPath id="g107m" transform="translate(0.6 0.6)"><path d="M25.5 39.9 Q32 51.6 38.5 39.9 Z"/></clipPath><path d="M25.5 39.9 Q32 51.6 38.5 39.9 Z" fill="none" stroke="#1c1b22" stroke-width="3" stroke-linejoin="round" stroke-linecap="round"/><ellipse cx="32" cy="41.2" rx="2.8600000000000003" ry="2.08" fill="#1c1b22"/><rect x="25.5" y="30.8" width="3.9000000000000004" height="6.5" rx="1.9500000000000002" fill="#1c1b22"/><rect x="34.6" y="30.8" width="3.9000000000000004" height="6.5" rx="1.9500000000000002" fill="#1c1b22"/></svg>